<svg version="1.1" xmlns="http://www.w3.org/2000/svg" style="display: block;" viewBox="24 252 1997.333 646.667" width="1997.333" height="646.667" preserveAspectRatio="none">
<path transform="translate(0,0)" fill="rgb(255,255,255)" d="M 304.051 291.486 C 314.635 290.728 325.261 290.742 335.842 291.529 C 405.177 296.751 464.448 329.476 509.442 381.711 C 499.566 390.454 489.55 399.036 479.396 407.454 C 471.128 399.441 463.767 390.73 454.996 383.069 C 384.974 321.909 288.244 315.584 208.676 362.339 C 159.959 390.869 124.799 437.833 111.145 492.614 C 96.0078 550.862 102.775 600.89 133.545 652.353 C 163.992 703.276 210.328 738.581 267.812 753.354 C 320.602 766.849 376.598 758.614 423.266 730.491 C 474.233 699.568 510.944 649.788 525.426 591.959 C 535.668 551.216 531.523 511.604 517.579 472.338 C 515.691 467.021 514.381 462.785 511.463 457.916 C 519.935 446.653 529.671 434.806 538.461 423.686 C 544.837 433.011 557.515 463.359 560.16 474.598 C 562.456 479.866 566.579 498.383 567.723 504.501 C 577.521 556.891 564.234 616.586 539.906 663.518 C 530.214 682.216 522.093 692.577 510.558 709.263 C 516.621 714.313 518.861 716.502 523.614 722.737 C 537.212 714.704 545.873 715.488 557.225 727.007 C 580.01 750.127 604.109 771.983 626.443 795.53 C 637.91 807.62 640.21 824.119 632.498 838.911 C 627.745 848.236 619.432 855.248 609.441 858.362 C 598.715 861.693 587.624 859.886 577.865 854.568 C 574.003 852.452 570.406 849.884 567.151 846.917 C 556.194 836.88 545.26 823.742 534.19 813.309 C 522.964 802.729 512.068 790.802 501.272 779.757 C 491.916 770.184 493.251 759.557 499.614 748.517 C 495.276 745.464 487.98 738.962 483.686 735.329 C 385.125 821.003 254.302 820.845 154.368 737.586 C 103.194 694.728 71.0032 633.404 64.7933 566.943 C 58.9002 500.04 81.7467 434.614 124.266 382.945 C 169.183 328.363 233.93 297.613 304.051 291.486 z"></path>
<path transform="translate(0,0)" fill="rgb(58,168,60)" d="M 418.251 479.427 C 424.747 478.454 444.176 456.058 450.337 450.509 C 492.111 412.885 535.32 375.944 580.368 342.268 C 588.728 336.018 599.9 327.982 609.03 323.272 C 574.175 364.066 537.67 403.42 504.012 445.127 C 495.322 455.896 482.811 470.258 475.175 481.352 L 487.097 483.064 C 492.705 483.724 504.119 484.147 507.673 487.936 C 504.026 493.06 444.099 546.964 437.317 551.896 C 431.044 560.52 417.113 582.563 409.835 588.976 C 413.624 605.206 438.145 698.095 435.566 707.624 C 425.344 709.61 372.663 670.844 359.288 663.447 C 358.962 663.266 357.986 662.433 357.675 662.17 L 348.113 654.432 C 344.882 651.685 337.445 645.226 335.611 641.636 C 328.21 635.289 327.275 634.729 318.713 639.338 C 285.698 659.335 254.008 680.965 221.148 701.099 C 216.921 703.689 209.213 707.454 204.355 706.08 C 200.911 696.482 229.103 593.501 233.822 575.754 C 209.278 559.689 157.59 512.147 133.118 490.999 C 131.895 489.942 132.521 487.417 132.849 485.921 C 143.044 481.459 247.188 477.346 266.295 475.801 C 270.755 463.089 314.786 353.992 316.557 352.235 C 317.698 351.103 318.142 351.434 319.658 351.376 C 330.599 357.226 364.186 458.746 372.794 474.282 C 374.193 476.807 403.552 477.89 407.07 478.095 L 418.251 479.427 z"></path>
<path transform="translate(0,0)" fill="rgb(253,191,38)" d="M 266.295 475.801 C 270.755 463.089 314.786 353.992 316.557 352.235 C 317.698 351.103 318.142 351.434 319.658 351.376 C 330.599 357.226 364.186 458.746 372.794 474.282 C 374.193 476.807 403.552 477.89 407.07 478.095 C 400.43 486.623 389.231 497.931 381.579 506.13 C 367.971 520.593 354.688 535.359 341.74 550.416 C 307.04 527.637 267.241 507.945 225.372 503.945 C 215.441 502.996 200.75 502.578 194.672 511.898 C 194.024 512.899 193.395 513.913 192.786 514.939 C 200.432 525.651 221.726 542.626 231.687 552.469 C 258.94 579.399 294.882 610.068 318.713 639.338 C 285.698 659.335 254.008 680.965 221.148 701.099 C 216.921 703.689 209.213 707.454 204.355 706.08 C 200.911 696.482 229.103 593.501 233.822 575.754 C 209.278 559.689 157.59 512.147 133.118 490.999 C 131.895 489.942 132.521 487.417 132.849 485.921 C 143.044 481.459 247.188 477.346 266.295 475.801 z"></path>
<path transform="translate(0,0)" fill="rgb(251,252,249)" d="M 407.07 478.095 L 418.251 479.427 L 419.837 480.54 C 417.596 484.826 395.041 507.36 389.706 513.123 C 374.277 529.777 359.182 546.738 344.431 563.996 C 305.982 536.175 253.355 512.209 205.082 514.004 C 220.776 528.828 333.483 631.197 335.611 641.636 C 328.21 635.289 327.275 634.729 318.713 639.338 C 294.882 610.068 258.94 579.399 231.687 552.469 C 221.726 542.626 200.432 525.651 192.786 514.939 C 193.395 513.913 194.024 512.899 194.672 511.898 C 200.75 502.578 215.441 502.996 225.372 503.945 C 267.241 507.945 307.04 527.637 341.74 550.416 C 354.688 535.359 367.971 520.593 381.579 506.13 C 389.231 497.931 400.43 486.623 407.07 478.095 z"></path>
<path transform="translate(0,0)" fill="rgb(253,191,38)" d="M 409.835 588.976 C 413.624 605.206 438.145 698.095 435.566 707.624 C 425.344 709.61 372.663 670.844 359.288 663.447 C 358.962 663.266 357.986 662.433 357.675 662.17 C 369.841 645.501 381.193 627.11 393.528 610.42 C 398.184 604.119 404.534 594.334 409.835 588.976 z"></path>
<path transform="translate(0,0)" fill="rgb(251,252,249)" d="M 475.175 481.352 L 487.097 483.064 C 492.705 483.724 504.119 484.147 507.673 487.936 C 504.026 493.06 444.099 546.964 437.317 551.896 C 431.044 560.52 417.113 582.563 409.835 588.976 C 404.534 594.334 398.184 604.119 393.528 610.42 C 381.193 627.11 369.841 645.501 357.675 662.17 L 348.113 654.432 C 349.662 652 352.873 649.383 354.828 646.653 C 363.715 634.245 372.508 621.771 381.332 609.317 C 401.431 580.674 421.835 552.246 442.542 524.04 C 451.658 511.646 465.215 492.36 475.175 481.352 z"></path>
<path transform="translate(0,0)" fill="rgb(253,191,38)" d="M 487.097 483.064 C 492.705 483.724 504.119 484.147 507.673 487.936 C 504.026 493.06 444.099 546.964 437.317 551.896 C 440.646 542.112 478.974 493.436 487.097 483.064 z"></path>
<path transform="translate(0,0)" fill="rgb(255,255,255)" d="M 661.817 370.305 C 685.143 370.682 708.612 370.248 732.012 370.298 C 759.089 370.264 795.781 367.47 813.971 392.824 C 837.712 425.915 828.097 453.174 799.395 476.35 C 802.09 477.497 805.434 478.909 808.002 480.267 C 820.005 486.751 828.914 497.769 832.742 510.863 C 837.473 526.692 834.488 542.676 826.724 556.959 C 825.259 560.401 820.708 566.258 818.036 568.947 C 794.7 592.429 759.615 588.816 729.581 588.835 L 661.331 588.979 C 660.875 535.797 660.792 482.612 661.081 429.429 C 661.078 421.92 660.498 374.887 661.817 370.305 z M 783.1 542.676 C 791.277 531.493 790.392 527.528 789.871 514.329 C 784.733 505.526 776.693 498.469 766.391 497.534 C 746.594 495.736 724.413 496.716 704.553 496.879 L 704.419 549.671 C 727.229 549.882 764.754 553.594 783.1 542.676 z M 704.348 459.035 C 716.707 459.085 729.125 459.238 741.479 459.211 C 755.742 459.18 762.692 460.907 774.743 452.635 C 780.927 444.775 782.957 439.764 781.652 429.55 C 781.406 427.726 781.093 425.912 780.715 424.111 C 771.23 411.188 762.264 409.655 746.626 409.746 C 732.649 409.827 718.609 409.936 704.631 409.902 L 704.348 459.035 z"></path>
<path transform="translate(0,0)" fill="rgb(58,168,60)" d="M 1891.8 429.349 C 1914.71 429.106 1924.96 433.465 1941.15 449.047 L 1941.4 432.279 C 1955.04 432.176 1968.68 432.18 1982.32 432.291 C 1982 463.581 1981.87 494.872 1981.94 526.164 C 1982.03 552.838 1986.24 592.037 1968.32 613.959 C 1934.27 655.596 1876.24 648.001 1836.65 619.218 L 1844.14 609.834 C 1848.9 603.559 1854.16 597.592 1859.28 591.609 C 1881.95 610.368 1923.21 618.842 1938.8 585.446 C 1942.42 577.694 1942.06 569.584 1942.03 561.149 C 1932.03 570.864 1921.41 577.979 1907.12 579.853 C 1834.29 589.399 1806.56 503.152 1845.67 452.83 C 1858.16 436.76 1872.37 431.685 1891.8 429.349 z M 1910.73 545.591 C 1960.42 533.511 1948.42 459.845 1901.07 464.302 C 1898 465.054 1893.61 466.051 1890.74 467.325 C 1863.05 479.62 1862.48 525.575 1888.07 540.265 C 1895.5 544.529 1902.32 545.62 1910.73 545.591 z"></path>
<path transform="translate(0,0)" fill="rgb(20,119,209)" d="M 661.272 622.017 C 687.534 621.897 746.46 618.227 767.987 627.151 C 781.321 632.678 791.415 642.47 796.727 655.949 C 803.049 671.993 802.133 690.78 795.001 706.424 C 789.016 719.553 779.611 727.147 766.367 732.178 C 779.56 755.203 793.234 777.949 807.378 800.403 L 774.75 800.524 L 765.483 800.301 C 752.807 781.527 741.033 757.686 727.962 737.788 L 697.7 737.725 L 697.959 800.57 C 686.156 800.854 673.526 800.575 661.661 800.521 L 661.272 622.017 z M 697.934 706.102 C 715.336 706.307 743.798 709.262 757 699.746 C 762.009 693.741 765.103 688.342 764.47 680.199 C 762.019 648.653 721.177 655.056 698.492 655.365 C 697.284 660.495 697.993 698.403 697.934 706.102 z"></path>
<path transform="translate(0,0)" fill="rgb(255,255,255)" d="M 924.362 420.278 C 942.526 418.468 965.847 428.25 978.393 440.902 C 1000.47 463.169 1002.26 491.145 1002.31 520.567 C 969.904 522.245 923.843 520.841 890.68 520.88 C 894.245 540.063 905.443 554.061 925.799 555.916 C 944.804 557.647 955.689 548.752 969.486 537.488 C 974.26 541.847 979.146 546.082 984.139 550.189 C 987.851 553.595 993.412 557.971 997.395 561.284 C 981.221 577.507 966.704 588.435 943.211 591.538 C 919.849 594.624 896.463 589.485 877.689 574.983 C 860.658 561.575 849.705 541.906 847.274 520.368 C 842.434 480.72 859.324 438.973 899.457 425.23 C 908.068 422.282 915.335 421.32 924.362 420.278 z M 926.5 490.188 L 960.921 490.086 C 956.136 469.748 948.814 456.841 925.509 456.294 C 909.322 458.011 900.143 463.167 892.639 478.166 C 890.523 482.396 889.985 483.495 890.014 488.345 C 892.758 492.061 920.234 490.207 926.5 490.188 z"></path>
<path transform="translate(0,0)" fill="rgb(58,168,60)" d="M 1441.62 374.199 L 1483.63 374.192 C 1484.36 399.384 1483.78 424.873 1484.6 450.481 C 1486.29 448.251 1488.31 445.79 1490.25 443.768 C 1499.77 434.021 1512.78 428.459 1526.4 428.307 C 1553.27 427.856 1574.59 444.94 1580.08 471.09 C 1583.32 486.473 1582.29 504.428 1582.35 520.183 L 1582.72 588.134 L 1543.06 588.113 C 1542.96 566.325 1543.03 544.537 1543.28 522.75 C 1543.68 500.601 1547.18 467.29 1515.69 465.581 C 1500.73 464.77 1485.49 479.454 1484.24 493.989 C 1483.26 505.389 1483.85 518.518 1483.95 530.152 C 1484.14 549.583 1484.15 569.015 1483.98 588.446 C 1470.53 588.838 1456.51 588.591 1443.01 588.543 C 1441.44 517.718 1442.88 445.457 1441.62 374.199 z"></path>
<path transform="translate(0,0)" fill="rgb(20,119,209)" d="M 1471.15 665.56 C 1483.03 665.458 1495.25 665.66 1507.16 665.728 C 1502.61 676.334 1497.79 690.675 1493.86 701.757 C 1483.58 730.346 1469.53 771.804 1461.25 800.779 L 1424.89 800.748 C 1422.13 784.938 1404.84 733.172 1398.38 717.32 C 1394.57 727.657 1390.25 743.358 1386.88 754.201 C 1382.88 767.057 1375.87 787.805 1373.47 800.75 L 1336.79 800.722 C 1335.59 793.603 1331.15 780.681 1328.82 773.389 C 1323.26 755.62 1317.35 737.964 1311.08 720.433 C 1304.7 702.305 1299.31 683.766 1292.28 665.926 C 1299.03 665.186 1321.24 665.627 1329.02 665.622 C 1335.64 693.842 1348.9 724.877 1356.06 754.318 C 1362.82 731.334 1378.45 686.734 1382.83 665.719 L 1415.56 665.697 C 1424.18 687.824 1432.87 731.656 1443.11 751.652 C 1446.53 743.836 1450.36 729.935 1453.03 721.421 C 1458.77 702.705 1464.81 684.082 1471.15 665.56 z"></path>
<path transform="translate(0,0)" fill="rgb(58,168,60)" d="M 1749.33 429.15 C 1750.28 429.113 1751.22 429.082 1752.16 429.057 C 1768.47 428.6 1781.9 431.745 1793.98 443.291 C 1816.75 465.042 1812.26 495.133 1812.05 523.418 C 1811.92 545.173 1811.96 566.93 1812.17 588.685 C 1799.52 589.104 1784.91 588.778 1772.11 588.785 C 1771.78 569.252 1771.63 549.717 1771.64 530.181 C 1771.65 518.978 1772.44 503.814 1770.91 492.974 C 1767.37 467.86 1747.03 458.165 1725.27 472.418 C 1709.91 488.114 1712.61 506.057 1712.45 526.29 C 1712.29 546.975 1712.45 567.731 1712.48 588.414 L 1672.04 588.441 C 1671.98 536.304 1671.32 484.169 1670.06 432.047 C 1684.15 431.9 1698.24 432.016 1712.33 432.395 L 1712.52 450.784 C 1723.98 436.992 1732.06 432.841 1749.33 429.15 z"></path>
<path transform="translate(0,0)" fill="rgb(58,168,60)" d="M 1264.62 374.166 L 1427.5 374.199 L 1427.61 412.85 C 1408.8 413.411 1387.62 412.924 1368.62 412.917 L 1368.77 532.75 L 1368.54 588.436 L 1327.53 588.549 C 1325.61 567.103 1326.23 541.398 1326.21 519.571 L 1326.16 413.301 C 1306 412.868 1284.77 413.202 1264.53 413.207 L 1264.62 374.166 z"></path>
<path transform="translate(0,0)" fill="rgb(255,255,255)" d="M 1067.18 421.393 C 1096.07 417.633 1118.49 425.291 1140.13 444.144 C 1133.29 450.85 1125.28 462.216 1119.07 470.183 C 1106.98 462.317 1095.07 455.964 1079.99 455.73 C 1072.35 454.844 1057.15 460.617 1057.98 470.034 C 1059.12 483.006 1082.52 487.003 1092.67 489.694 C 1116.81 496.094 1143.01 505.973 1142.94 535.423 C 1142.85 576.037 1115.36 591.661 1077.72 592.041 C 1048.38 590.877 1033.32 583.317 1010.49 565.142 C 1018.37 555.663 1026.05 545.837 1034.04 536.248 C 1050.04 548.836 1080.39 568.57 1100.47 549.031 C 1102.17 547.384 1103.28 542.119 1102.58 539.837 C 1097.92 524.563 1071.31 523.909 1057.67 519.221 C 1030.74 510.838 1013.39 493.304 1017.78 463.594 C 1021.55 438.055 1043.51 425.387 1067.18 421.393 z"></path>
<path transform="translate(0,0)" fill="rgb(20,119,209)" d="M 876.06 661.331 C 893.15 659.799 913.23 666.685 925.137 679.079 C 942.432 697.082 944.194 719.966 943.883 743.494 C 914.931 744.751 876.685 743.231 846.765 743.565 C 849.763 751.942 851.676 757.412 858.334 763.891 C 865.035 770.317 874.066 773.734 883.342 773.354 C 895.795 772.928 907.351 766.162 915.658 757.183 C 918.831 759.983 922.195 763.288 925.311 766.214 L 938.61 777.393 C 913.267 807.475 869.734 812.601 837.911 789.499 C 806.217 766.491 803.522 715.677 826.713 685.725 C 838.976 669.886 856.773 663.394 876.06 661.331 z M 847.216 718.789 L 884.75 718.854 C 889.619 718.916 905.111 719.498 908.89 718.366 C 910.047 716.583 911.563 714.524 910.67 712.312 C 904.161 696.192 887.483 688.86 871.914 691.313 C 856.438 697.078 852.458 703.694 847.216 718.789 z"></path>
<path transform="translate(0,0)" fill="rgb(20,119,209)" d="M 1224.57 661.443 C 1271.81 659.426 1292.76 701.726 1289.05 743.352 C 1256.9 743.081 1224.74 743.083 1192.59 743.36 C 1194.89 750.077 1196.83 755.531 1201.53 760.986 C 1207.6 768.121 1216.28 772.511 1225.62 773.163 C 1239.78 774.149 1251.17 767.295 1261.3 758.265 L 1275.14 769.235 C 1277.96 771.207 1282.72 775.416 1285.54 777.747 C 1272.35 791.762 1256.34 801.352 1236.16 803.363 C 1167.29 810.225 1134.32 733.689 1174.99 683.334 C 1187.13 668.295 1205.37 662.849 1224.57 661.443 z M 1191.68 718.986 L 1225.75 719.073 L 1257.44 719.038 C 1249.67 699.717 1243.33 689.894 1220.81 690.323 C 1203.02 694.286 1197.33 702.054 1191.68 718.986 z"></path>
<path transform="translate(0,0)" fill="rgb(255,255,255)" d="M 1171.63 374.07 C 1184.05 373.428 1201.49 373.97 1214.29 373.984 C 1214.04 390.4 1214.34 407.322 1214.43 423.779 L 1255.97 423.894 L 1256.1 460.431 L 1214.21 460.512 C 1214.47 477.506 1210.98 534.406 1217.04 545.838 C 1219.13 549.779 1222.43 552.735 1226.78 553.906 C 1236.75 556.588 1246.73 550.688 1255.02 545.877 C 1257.09 553.138 1258.7 560.473 1260.4 567.83 C 1261.58 572.518 1263.86 578.861 1259.6 582.212 C 1239.42 598.082 1202.96 594.436 1185.94 577.121 C 1180.4 571.463 1176.4 564.471 1174.34 556.819 C 1169.87 540.341 1171.83 481.261 1171.98 460.361 L 1150.34 460.342 C 1150.13 448.313 1150.31 435.706 1150.31 423.631 L 1171.84 423.621 L 1171.63 374.07 z"></path>
<path transform="translate(0,0)" fill="rgb(20,119,209)" d="M 946.812 665.784 C 959.294 665.704 971.777 665.75 984.258 665.922 C 993.831 696.27 1006.45 727.371 1016.43 758.995 C 1027.43 727.813 1038.79 696.758 1050.5 665.836 L 1088.29 665.869 C 1083.58 676.801 1078.93 687.76 1074.34 698.746 C 1071.46 707.644 1066.31 718.796 1062.93 727.783 C 1053.97 751.581 1042.89 776.837 1035.06 800.955 L 999.855 800.75 C 985.688 766.436 972.002 731.925 958.801 697.228 C 955.066 687.185 949.996 675.695 946.812 665.784 z"></path>
<path transform="translate(0,0)" fill="rgb(255,255,255)" d="M 1791.52 701.19 C 1805.26 699.491 1814.39 707.543 1821.86 717.609 C 1842.09 690.548 1881.53 698.656 1886.04 732.308 C 1888.92 753.87 1887.77 778.675 1887.83 800.568 C 1880.15 800.878 1871.12 800.661 1863.33 800.666 C 1862.47 782.548 1864.37 751.688 1861.38 735.069 C 1849.5 719.341 1837.71 720.611 1827.76 737.516 C 1827.5 751.618 1827.7 766.313 1827.69 780.462 L 1827.74 800.667 L 1803.42 800.526 L 1802.19 736.849 C 1796.56 726.994 1782.56 717.758 1774.31 728.524 C 1763.57 742.55 1767.56 782.424 1767.54 800.735 L 1744.14 800.765 L 1743.85 704.28 C 1748.52 704.121 1765.17 702.889 1768.48 705.087 C 1768.9 707.292 1769.11 708.949 1769.35 711.18 C 1772.33 711.622 1778.59 704.643 1782.53 703.223 C 1785.91 702.006 1788 701.725 1791.52 701.19 z"></path>
<path transform="translate(0,0)" fill="rgb(255,255,255)" d="M 1675.4 703.343 C 1702.03 698.846 1727.33 716.565 1732.21 743.124 C 1737.08 769.683 1719.73 795.235 1693.24 800.491 C 1675.77 803.958 1657.78 797.747 1646.17 784.238 C 1634.56 770.728 1631.12 752.012 1637.18 735.258 C 1643.23 718.505 1657.84 706.309 1675.4 703.343 z M 1686.83 779.68 C 1715.53 771.065 1713.21 725.555 1681.3 724.18 C 1674.49 726.115 1667.69 728.593 1664.74 735.394 C 1655.75 756.139 1662.69 778.325 1686.83 779.68 z"></path>
<path transform="translate(0,0)" fill="rgb(58,168,60)" d="M 1607.05 432.366 C 1620.68 432.19 1634.65 432.347 1648.31 432.346 L 1648.17 536.315 C 1648.17 552.569 1648.65 572.473 1647.86 588.509 L 1607.49 588.367 C 1606.92 550.071 1607.51 511.396 1607.12 473.057 C 1607.07 467.889 1606.32 435.339 1607.05 432.366 z"></path>
<path transform="translate(0,0)" fill="rgb(20,119,209)" d="M 1103.66 665.174 L 1138.15 665.213 C 1137.71 695.532 1138.44 726.15 1138.35 756.436 C 1138.32 766.371 1139.11 791.719 1137.77 800.523 L 1103.52 800.609 L 1103.66 665.174 z"></path>
<path transform="translate(0,0)" fill="rgb(255,255,255)" d="M 1583.18 702.194 C 1602.13 699.955 1616.36 705.009 1627.89 720.494 C 1623.81 724.98 1617.08 730.939 1612.46 735.234 C 1598.57 722.963 1581.97 717.281 1571.44 736.994 C 1567.38 744.772 1566.59 753.848 1569.24 762.209 C 1577.02 787.207 1597.95 781.585 1612.63 770.328 C 1613.88 769.369 1617.28 772.048 1618.71 772.964 C 1623.39 776.718 1625.57 778.42 1629.54 783.085 C 1622.87 791.979 1614.55 798.335 1603.72 801.4 C 1591.5 804.778 1578.43 803.035 1567.52 796.573 C 1529.34 774.333 1534.12 714.003 1583.18 702.194 z"></path>
<path transform="translate(0,0)" fill="rgb(58,168,60)" d="M 1624.4 367.358 C 1638.08 365.446 1650.72 374.944 1652.7 388.606 C 1654.67 402.268 1645.23 414.958 1631.58 416.997 C 1617.84 419.049 1605.05 409.535 1603.06 395.782 C 1601.07 382.03 1610.64 369.282 1624.4 367.358 z"></path>
<path transform="translate(0,0)" fill="rgb(20,119,209)" d="M 1116.23 611.077 C 1116.95 611.043 1117.67 611.016 1118.38 610.997 C 1128.48 610.735 1131.92 613.327 1139.12 620.094 C 1143.7 635.215 1140.92 645.096 1126.21 652.522 C 1116.2 653.979 1113.39 652.809 1105.26 646.85 C 1104.36 644.973 1103.54 643.06 1102.81 641.116 C 1097.78 627.659 1102.49 615.84 1116.23 611.077 z"></path>
<path transform="translate(0,0)" fill="rgb(255,255,255)" d="M 1514.84 771.582 C 1523.22 771.57 1530.08 778.266 1530.26 786.649 C 1530.45 795.032 1523.9 802.025 1515.52 802.385 C 1509.95 802.625 1504.68 799.83 1501.75 795.08 C 1498.82 790.33 1498.68 784.367 1501.4 779.491 C 1504.12 774.616 1509.26 771.59 1514.84 771.582 z"></path>
</svg>